<svg id="Layer_1" data-name="Layer 1" xmlns="http://www.w3.org/2000/svg" viewBox="0 0 853.84 465.71"><defs><style>.cls-1{fill:none;stroke:#ea2c2c;stroke-miterlimit:10;stroke-width:9px;}.cls-2{fill:#ea2c2c;}</style></defs><title>logo</title><path d="M144.53,693.35H133.31v-37l-19.73,35.1a4.93,4.93,0,0,1-2,2,5.89,5.89,0,0,1-2.8.69,5.58,5.58,0,0,1-2.72-.69,5,5,0,0,1-2-2l-19.82-35.1v37H73.08V636.09a5.6,5.6,0,0,1,1.14-3.46,5.46,5.46,0,0,1,3-2,6.1,6.1,0,0,1,1.8-.15,6.31,6.31,0,0,1,1.73.39,5.21,5.21,0,0,1,1.52.91,5.34,5.34,0,0,1,1.16,1.41l25.34,44.53,25.34-44.53a5.44,5.44,0,0,1,2.72-2.34,5.8,5.8,0,0,1,3.62-.22,5.73,5.73,0,0,1,4.11,5.5Z" transform="translate(-73.08 -228.5)"/><path d="M205.7,662.06a17.65,17.65,0,0,1-.81,5,15.15,15.15,0,0,1-2.64,5A14.67,14.67,0,0,1,197.5,676a15,15,0,0,1-7.13,1.56H170.3V666.86h20.07a4.41,4.41,0,0,0,3.51-1.41,5.05,5.05,0,0,0,1.25-3.48,4.41,4.41,0,0,0-1.4-3.46,4.8,4.8,0,0,0-3.36-1.26H170.3a4.41,4.41,0,0,0-3.51,1.41,5.07,5.07,0,0,0-1.24,3.48v15.71a4.49,4.49,0,0,0,1.39,3.51,4.91,4.91,0,0,0,3.44,1.25h20v10.74H170.3a17,17,0,0,1-5-.83,14.61,14.61,0,0,1-8.8-7.46,15.58,15.58,0,0,1-1.54-7.21V662.06a17.4,17.4,0,0,1,.82-5,15,15,0,0,1,2.63-5,14.78,14.78,0,0,1,4.75-3.87,15,15,0,0,1,7.13-1.56h20.07a17,17,0,0,1,5,.83,14.72,14.72,0,0,1,5,2.66,14.92,14.92,0,0,1,3.83,4.8A15.46,15.46,0,0,1,205.7,662.06Zm-3.08-29.61-22.35,8.1-3-6.49,20.59-12.12Z" transform="translate(-73.08 -228.5)"/><path d="M264.47,693.35H253.34v-26a10,10,0,0,0-.75-4,9.19,9.19,0,0,0-2-3,8.71,8.71,0,0,0-3-1.92,10.18,10.18,0,0,0-3.74-.67H224.32v35.53H213.19v-41.2a5.52,5.52,0,0,1,.43-2.19,5.14,5.14,0,0,1,1.2-1.77,5.44,5.44,0,0,1,1.79-1.19,5.6,5.6,0,0,1,2.19-.44h25.08a22,22,0,0,1,4.43.48,21,21,0,0,1,4.63,1.54,22.06,22.06,0,0,1,4.36,2.68A17.84,17.84,0,0,1,261,655.2a19.41,19.41,0,0,1,2.54,5.34,23,23,0,0,1,.94,6.84Z" transform="translate(-73.08 -228.5)"/><path d="M325,677.55a17.61,17.61,0,0,1-.72,5.22,15.27,15.27,0,0,1-1.93,4.06,13.26,13.26,0,0,1-2.78,3,16.33,16.33,0,0,1-3.32,2,17.35,17.35,0,0,1-3.51,1.15,17.08,17.08,0,0,1-3.36.37H289.3a16.58,16.58,0,0,1-5.13-.74,14.7,14.7,0,0,1-4-2,13.47,13.47,0,0,1-3-2.83,16.5,16.5,0,0,1-2-3.36,17.45,17.45,0,0,1-1.14-3.55,17,17,0,0,1-.36-3.35V662.32a15.8,15.8,0,0,1,1.56-7.34,15.17,15.17,0,0,1,3.9-4.89,14.48,14.48,0,0,1,5.07-2.7,17.65,17.65,0,0,1,5.05-.83h20.08v11.26h-20A4.61,4.61,0,0,0,286,659a4.54,4.54,0,0,0-1.16,3.36v15.14a4.83,4.83,0,0,0,1.13,3.47,4.43,4.43,0,0,0,3.32,1.16h20.08a4.46,4.46,0,0,0,3.38-1.16,4.73,4.73,0,0,0,1.11-3.38V626.79H325Z" transform="translate(-73.08 -228.5)"/><path d="M385.4,662.06a17.65,17.65,0,0,1-.81,5,15.12,15.12,0,0,1-2.63,5,14.78,14.78,0,0,1-4.75,3.87,15,15,0,0,1-7.13,1.56H350V666.86h20.08a4.44,4.44,0,0,0,3.51-1.41,5,5,0,0,0,1.24-3.48,4.4,4.4,0,0,0-1.39-3.46,4.84,4.84,0,0,0-3.36-1.26H350a4.44,4.44,0,0,0-3.51,1.41,5.07,5.07,0,0,0-1.24,3.48v15.71a4.52,4.52,0,0,0,1.39,3.51,5,5,0,0,0,3.45,1.25h20v10.74H350a16.94,16.94,0,0,1-5-.83,14.61,14.61,0,0,1-8.8-7.46,15.46,15.46,0,0,1-1.54-7.21V662.06a17.72,17.72,0,0,1,.81-5,15.22,15.22,0,0,1,2.63-5,14.82,14.82,0,0,1,4.76-3.87,15,15,0,0,1,7.12-1.56h20.08a17.06,17.06,0,0,1,5,.83,14.63,14.63,0,0,1,8.79,7.46A15.46,15.46,0,0,1,385.4,662.06Z" transform="translate(-73.08 -228.5)"/><path d="M436.73,650a5.33,5.33,0,0,1,.36,3.24,5.58,5.58,0,0,1-1.47,2.86l-25.73,26h26.76v11.26H396.49a5.29,5.29,0,0,1-3.1-1,6,6,0,0,1-2.08-2.49,5.68,5.68,0,0,1,1.24-6.18l25.6-25.88H391.4V646.56h40.24a5.54,5.54,0,0,1,3.06.91A5.3,5.3,0,0,1,436.73,650Z" transform="translate(-73.08 -228.5)"/><path d="M534.33,675.08a20.24,20.24,0,0,1-.83,6,17.83,17.83,0,0,1-2.21,4.69,14.8,14.8,0,0,1-3.21,3.47,19.59,19.59,0,0,1-3.81,2.33,18.1,18.1,0,0,1-4,1.34,18.38,18.38,0,0,1-3.83.44H473.5V682.09h42.94a6.5,6.5,0,0,0,5-1.9,7.2,7.2,0,0,0,1.77-5.11,8.12,8.12,0,0,0-.47-2.85,6.38,6.38,0,0,0-1.35-2.25,5.91,5.91,0,0,0-2.14-1.48,7.39,7.39,0,0,0-2.8-.51h-25.6a19.6,19.6,0,0,1-5.82-1,17.19,17.19,0,0,1-5.8-3.14,17,17,0,0,1-4.45-5.66,21.47,21.47,0,0,1,0-17.12,17.31,17.31,0,0,1,4.45-5.67,17.08,17.08,0,0,1,5.8-3.16,19.57,19.57,0,0,1,5.82-1h37.88v11.25H490.84a6.34,6.34,0,0,0-4.94,2,7.3,7.3,0,0,0-1.78,5.15,7.12,7.12,0,0,0,1.78,5.12,6.44,6.44,0,0,0,4.94,1.89h25.68a19.28,19.28,0,0,1,7.82,1.9,20.11,20.11,0,0,1,3.79,2.4,16.16,16.16,0,0,1,3.18,3.49,16.94,16.94,0,0,1,2.21,4.67A20.33,20.33,0,0,1,534.33,675.08Z" transform="translate(-73.08 -228.5)"/><path d="M592.68,677.55a17.28,17.28,0,0,1-.73,5.22,15,15,0,0,1-1.93,4.06,13,13,0,0,1-2.78,3,16.07,16.07,0,0,1-3.32,2,17.12,17.12,0,0,1-6.87,1.52H557a17.6,17.6,0,0,1-5.05-.83,14.78,14.78,0,0,1-5.08-2.7,15.28,15.28,0,0,1-3.89-4.89,15.91,15.91,0,0,1-1.57-7.38V662.32A15.8,15.8,0,0,1,543,655a15.28,15.28,0,0,1,3.89-4.89,14.61,14.61,0,0,1,5.08-2.7,17.6,17.6,0,0,1,5.05-.83h20.07a15.6,15.6,0,0,1,7.28,1.56,14.58,14.58,0,0,1,4.84,3.92,15.54,15.54,0,0,1,2.67,5.13,17.77,17.77,0,0,1,.84,5.15ZM581.55,662.4a4,4,0,0,0-4.5-4.58h-20a4.62,4.62,0,0,0-3.38,1.14,4.53,4.53,0,0,0-1.15,3.36v15.23a4.62,4.62,0,0,0,1.15,3.38,4.55,4.55,0,0,0,3.38,1.16h20a4.48,4.48,0,0,0,3.39-1.16,4.73,4.73,0,0,0,1.11-3.38Z" transform="translate(-73.08 -228.5)"/><path d="M622.47,693.35h-5a17.67,17.67,0,0,1-5.12-.83,14.8,14.8,0,0,1-9-7.59,16.18,16.18,0,0,1-1.54-7.38V626.79H613v50.76a4.35,4.35,0,0,0,1.29,3.31,4.44,4.44,0,0,0,3.21,1.23h5Z" transform="translate(-73.08 -228.5)"/><path d="M679.53,687.68a5.93,5.93,0,0,1-.42,2.25,5.53,5.53,0,0,1-1.18,1.79,5.32,5.32,0,0,1-1.76,1.19,5.38,5.38,0,0,1-2.16.44H648.84a21.88,21.88,0,0,1-4.39-.48,20.57,20.57,0,0,1-4.6-1.54,23.82,23.82,0,0,1-4.39-2.68,17,17,0,0,1-3.7-3.94,20.32,20.32,0,0,1-2.55-5.34,22.61,22.61,0,0,1-1-6.84v-26h11.13v26a10,10,0,0,0,.75,4,9.34,9.34,0,0,0,2,3,8.9,8.9,0,0,0,3,1.92,10.28,10.28,0,0,0,3.75.67H668.4V646.56h11.13Z" transform="translate(-73.08 -228.5)"/><path d="M732.06,657.82H712.62v35.53H701.37V657.82H686.9V646.56h14.47V631.29h11.25v15.27h19.44Z" transform="translate(-73.08 -228.5)"/><path d="M750.68,637H739.55V626.79h11.13Zm0,56.39H739.55V646.56h11.13Z" transform="translate(-73.08 -228.5)"/><path d="M811.68,677.55a17.28,17.28,0,0,1-.73,5.22,15,15,0,0,1-1.92,4.06,13.08,13.08,0,0,1-2.79,3,16.27,16.27,0,0,1-3.31,2,17.35,17.35,0,0,1-3.51,1.15,17.08,17.08,0,0,1-3.36.37H776a17.6,17.6,0,0,1-5.05-.83,14.78,14.78,0,0,1-5.08-2.7,15.28,15.28,0,0,1-3.89-4.89,15.92,15.92,0,0,1-1.56-7.38V662.32A15.8,15.8,0,0,1,762,655a15.28,15.28,0,0,1,3.89-4.89,14.61,14.61,0,0,1,5.08-2.7,17.6,17.6,0,0,1,5.05-.83h20.08a15.56,15.56,0,0,1,7.27,1.56,14.58,14.58,0,0,1,4.84,3.92,15.57,15.57,0,0,1,2.68,5.13,18.08,18.08,0,0,1,.83,5.15ZM800.55,662.4a4,4,0,0,0-4.49-4.58h-20a4.62,4.62,0,0,0-3.38,1.14,4.53,4.53,0,0,0-1.15,3.36v15.23a4.62,4.62,0,0,0,1.15,3.38,4.55,4.55,0,0,0,3.38,1.16h20a4.46,4.46,0,0,0,3.38-1.16,4.73,4.73,0,0,0,1.11-3.38Z" transform="translate(-73.08 -228.5)"/><path d="M872.43,693.35H861.3v-26a10,10,0,0,0-.75-4,9.21,9.21,0,0,0-2-3,8.71,8.71,0,0,0-3-1.92,10.18,10.18,0,0,0-3.74-.67H832.27v35.53H821.14v-41.2a5.52,5.52,0,0,1,.43-2.19,5.29,5.29,0,0,1,1.2-1.77,5.39,5.39,0,0,1,1.8-1.19,5.51,5.51,0,0,1,2.18-.44h25.08a22,22,0,0,1,4.43.48,21,21,0,0,1,4.63,1.54,22.42,22.42,0,0,1,4.37,2.68,17.8,17.8,0,0,1,3.68,3.94,19.41,19.41,0,0,1,2.54,5.34,22.94,22.94,0,0,1,.95,6.84Z" transform="translate(-73.08 -228.5)"/><path d="M926.92,677.55a17.28,17.28,0,0,1-.73,5.22,15,15,0,0,1-1.93,4.06,12.82,12.82,0,0,1-2.78,3,16.07,16.07,0,0,1-3.32,2,17.12,17.12,0,0,1-6.87,1.52H881.16V682.09h30.05a4.07,4.07,0,0,0,4.58-4.54q-.21-4.5-4.5-4.5H894a13.71,13.71,0,0,1-6.25-1.3,12.71,12.71,0,0,1-4.17-3.25,12.29,12.29,0,0,1-2.31-4.19,14.11,14.11,0,0,1-.71-4.2,13.67,13.67,0,0,1,1.33-6.34,12.6,12.6,0,0,1,3.34-4.18,13,13,0,0,1,4.36-2.31,15.13,15.13,0,0,1,4.41-.72H921.4v11.26H894.13a3.8,3.8,0,0,0-1.35.19,1.58,1.58,0,0,0-.73.52,1.47,1.47,0,0,0-.28.69,6,6,0,0,0,0,.72A2.52,2.52,0,0,0,892,661a1.31,1.31,0,0,0,.53.56,1.76,1.76,0,0,0,.73.2l.79,0h17.25a15.73,15.73,0,0,1,7.28,1.55,14.58,14.58,0,0,1,4.84,3.92,15.36,15.36,0,0,1,2.67,5.13A17.82,17.82,0,0,1,926.92,677.55Z" transform="translate(-73.08 -228.5)"/><path class="cls-1" d="M430.15,384.48a74.65,74.65,0,0,1-1.29-13.8A73.6,73.6,0,0,1,572.72,348.8" transform="translate(-73.08 -228.5)"/><path class="cls-1" d="M414.94,423.44a100.33,100.33,0,0,1-15.51-53.68c0-56.39,46.53-102.1,103.94-102.1S607.3,313.37,607.3,369.76a100.43,100.43,0,0,1-21.83,62.6" transform="translate(-73.08 -228.5)"/><circle class="cls-2" cx="430.28" cy="141.26" r="14.72"/><path class="cls-1" d="M463.57,347.71a46.92,46.92,0,0,1,75.81-.14" transform="translate(-73.08 -228.5)"/><path class="cls-1" d="M391.93,459.4a140.68,140.68,0,1,1,221,3" transform="translate(-73.08 -228.5)"/><path d="M567.51,366.4c-2.52,16.56-5.22,47.68,5.2,68.93a26.49,26.49,0,0,1,2.58,14.52,58.56,58.56,0,0,1-1.23,7,21.87,21.87,0,0,1-1.85,4.95c-2.42,4.76-9,19.64-19.76,58a12.94,12.94,0,0,1-5.81,7.57c-8.54,5.08-27.58,13.19-43.81-2.69-11.61-11.35-16.46-28.22-11.73-43.74,2.57-8.45,8.18-17.56,19.62-24.71,0,0,8.11-5.16,23-10.2A8.76,8.76,0,0,0,539.6,437a32.31,32.31,0,0,0-2.2-9.25S509,364.58,556.69,356A9.21,9.21,0,0,1,567.51,366.4Z" transform="translate(-73.08 -228.5)"/><circle cx="387.05" cy="145.86" r="13.8"/><rect x="409.83" y="443.09" width="79.74" height="27.01" rx="11.62" transform="translate(90.83 -345.52) rotate(18.08)"/><rect x="416.72" y="483.03" width="59.47" height="27.01" rx="11.62" transform="translate(103.06 -342.54) rotate(18.08)"/><rect x="420.86" y="404.46" width="79.74" height="27.01" rx="11.62" transform="translate(79.38 -350.85) rotate(18.08)"/></svg>